<svg xmlns="http://www.w3.org/2000/svg" viewBox="0 0 220 220">
  <defs>
    <linearGradient id="leafG" x1="0" y1="0" x2="1" y2="1">
      <stop offset="0" stop-color="#5e9277"/>
      <stop offset=".55" stop-color="#2e6550"/>
      <stop offset="1" stop-color="#123c34"/>
    </linearGradient>
    <filter id="leafShadow" x="-20%" y="-20%" width="140%" height="140%">
      <feDropShadow dx="0" dy="6" stdDeviation="5" flood-color="#0c241f" flood-opacity=".25"/>
    </filter>
  </defs>
  <g filter="url(#leafShadow)">
    <path d="M110 16c40 30 64 70 64 104 0 44-28 76-64 84-36-8-64-40-64-84 0-34 24-74 64-104Z" fill="url(#leafG)"/>
    <path d="M110 30v168" stroke="#0c241f" stroke-width="3" opacity=".45"/>
    <path d="M110 62c-18 10-30 24-36 40M110 62c18 10 30 24 36 40M110 108c-16 9-26 21-32 35M110 108c16 9 26 21 32 35" stroke="#0c241f" stroke-width="2" opacity=".35" fill="none"/>
  </g>
</svg>
